<svg height="512" viewBox="0 0 64 64" width="512" xmlns="http://www.w3.org/2000/svg"><g id="Online_Shopping-Shopping-Smartphone-Shopping_Bag-Commerce" data-name="Online Shopping-Shopping-Smartphone-Shopping Bag-Commerce"><path d="m42 9v36a6 6 0 0 1 -6 6h-20a6.013 6.013 0 0 1 -5.2-3v-.01a5.939 5.939 0 0 1 -.8-2.99v-36a6 6 0 0 1 6-6h20a6 6 0 0 1 5.98 5.55c.01.15.02.3.02.45z" fill="#5aaae7"/><path d="m42 11.25v27.49a14.919 14.919 0 0 1 -4.35-2.88l-7.03 1.31 3.64-6.16a15 15 0 0 1 7.74-19.76z" fill="#3d9ae2"/><path d="m60.77 25.6a15 15 0 0 1 -17.37 12.17 12.932 12.932 0 0 1 -1.4-.32 14.927 14.927 0 0 1 -6.35-3.59l-7.03 1.31 3.64-6.16a14.995 14.995 0 0 1 16.34-20.78 15 15 0 0 1 12.17 17.37z" fill="#ffd422"/><path d="m52 23h-2v-5a2 2 0 0 0 -4 0v5h-2v-5a4 4 0 0 1 8 0z" fill="#ebbf00"/><path d="m41 20v12a2.006 2.006 0 0 0 2 2h10a2.006 2.006 0 0 0 2-2v-12z" fill="#ebbf00"/><path d="m53 28v2a2.006 2.006 0 0 1 -2 2h-10a2.006 2.006 0 0 1 -2-2v-2z" fill="#d1d3d4"/><path d="m39 18h14v10h-14z" fill="#3d9ae2"/><path d="m28 43a2.006 2.006 0 0 1 2 2 2.015 2.015 0 0 1 -2 2h-4a2.006 2.006 0 0 1 -2-2 2.015 2.015 0 0 1 2-2z" fill="#e6e7e8"/><path d="m22.9 43.71a3.012 3.012 0 0 1 -.4 1.5l-.33.58a1.9 1.9 0 0 1 -.17-.79 1.955 1.955 0 0 1 .59-1.41 2.258 2.258 0 0 1 .29-.25c.01.12.02.25.02.37z" fill="#e6e7e8"/><path d="m22.83 20.17a4.008 4.008 0 1 1 -2.83-1.17 4.025 4.025 0 0 1 2.83 1.17z" fill="#3d9ae2"/><path d="m20.83 18.17a4.008 4.008 0 1 1 -2.83-1.17 4.025 4.025 0 0 1 2.83 1.17z" fill="#ffd422"/><path d="m20.9 41.71a3 3 0 0 0 -5.6-1.5l-4.5 7.78a5.939 5.939 0 0 1 -.8-2.99v-15.98a2 2 0 0 0 -1.54 1.14l-4.54 9.85a9.908 9.908 0 0 0 -.92 4.18v17.81l16-.01v-4.34a6.024 6.024 0 0 0 -.86-3.09l-2.14-3.56 4.5-7.79a3.012 3.012 0 0 0 .4-1.5z" fill="#ffc477"/><path d="m18 6h2v2h-2z" fill="#3d9ae2"/><path d="m22 6h8v2h-8z" fill="#3d9ae2"/><path d="m50 21h-2v-5a2 2 0 0 0 -4 0v5h-2v-5a4 4 0 0 1 8 0z" fill="#1e81ce"/><path d="m15.757 18h8.485v2h-8.485z" fill="#ed1c24" transform="matrix(.707 -.707 .707 .707 -7.577 19.707)"/><g fill="#1e81ce"><path d="m25 18h4v2h-4z"/><path d="m25 22h4v2h-4z"/></g></g></svg>